<?xml version="1.0" encoding="UTF-8"?>
<svg xmlns="http://www.w3.org/2000/svg" width="174" height="43" viewBox="0 0 174 43" fill="none">
  <path d="M170.11 22.8232C169.315 22.8232 168.637 22.69 168.078 22.4236C167.519 22.1571 167.24 21.6071 167.24 20.7692V14.3152H173.423V9.71312H167.24V3.55127H161.529V9.71312H157.662V14.3152H160.803V22.213C160.803 24.1123 161.276 25.526 162.217 26.4541C163.158 27.378 165.104 27.842 168.056 27.842H173.458V22.8146C171.546 22.8232 171.06 22.8318 170.11 22.8318V22.8232Z" fill="white"></path>
  <path d="M61.7621 3.55127H54.3498L46.9032 12.9573V10.1127V3.55127H40.4233V27.8377H46.9032V22.1486L48.6864 19.8926L54.3498 27.8377H61.7793L53.0951 14.8179L61.7621 3.55127Z" fill="white"></path>
  <path d="M92.8594 21.934L89.366 9.71338H82.6455L88.6742 27.838H91.2051C91.0031 28.5599 90.8012 29.2775 90.5992 29.9994H84.1194V35.1514H88.657C92.2492 35.1514 95.429 32.8397 96.5419 29.4236C96.7138 28.895 96.8857 28.3665 97.0575 27.838L103.022 9.71338H96.2841L92.8594 21.934Z" fill="white"></path>
  <path d="M118.349 9.71338L118.34 9.74346L118.344 9.71338L114.056 24.0738L109.772 9.71338H103.017L109.544 27.838H118.559L125.069 9.71338H118.349Z" fill="white"></path>
  <path d="M143.121 11.6469C141.17 10.2246 138.596 9.51562 135.399 9.51562C132.202 9.51562 129.637 10.2246 127.677 11.6469C125.718 13.0692 124.738 15.4068 124.738 18.6682C124.738 21.9296 125.718 24.3101 127.677 25.7839C129.637 27.2578 132.211 27.9926 135.399 27.9926C138.587 27.9926 141.17 27.2578 143.121 25.7839C145.072 24.3144 146.047 21.9425 146.047 18.6682C146.047 15.3939 145.072 13.0649 143.121 11.6469ZM138.441 22.9093C137.694 23.4249 136.684 23.6827 135.412 23.6827C134.14 23.6827 133.117 23.4249 132.365 22.9093C131.613 22.3936 131.235 20.9971 131.235 18.7154C131.235 16.4337 131.609 15.063 132.365 14.5603C133.117 14.0575 134.131 13.8083 135.412 13.8083C136.692 13.8083 137.694 14.0575 138.441 14.5603C139.189 15.063 139.563 16.4466 139.563 18.7154C139.563 20.9842 139.189 22.3936 138.441 22.9093Z" fill="white"></path>
  <path d="M154.925 3.55127H148.475V27.8377H154.925V3.55127Z" fill="white"></path>
  <path d="M76.1009 21.8262C76.0794 22.17 75.8517 22.6942 75.4907 23.1497C74.7517 24.065 73.4755 23.9962 72.1735 23.9919C70.5535 23.9919 69.6898 23.8243 68.809 23.1798C68.2632 22.7802 67.9152 21.8305 67.7777 20.3266H82.5807L82.6237 18.7324C82.6237 15.716 81.9061 13.4343 80.4666 11.8788C79.0314 10.3233 76.2126 9.5498 72.0102 9.5498C67.8078 9.5498 65.0233 10.3018 63.5666 11.81C62.11 13.3182 61.3838 15.6558 61.3838 18.827C61.3838 21.9981 62.1186 24.3099 63.5838 25.8052C65.0577 27.2963 67.9238 28.044 72.1735 28.044C74.6743 28.044 76.565 27.8721 77.8369 27.524C79.1174 27.176 80.1959 26.5443 81.0682 25.6205C81.8889 24.7568 82.4089 23.4806 82.6452 21.8305H76.1009V21.8262ZM68.65 14.3925C69.2988 13.8511 70.4246 13.5804 72.0188 13.5804C73.5098 13.5804 74.554 13.7995 75.1556 14.2378C75.7572 14.6761 76.0708 15.5613 76.0966 16.889H67.7734C67.9066 15.6128 68.1945 14.7792 68.6414 14.3882L68.65 14.3925Z" fill="white"></path>
  <path d="M9.91046 13.7522L3.22867 7.07045L6.75649 3.54264L13.4383 10.2201V0.775391H18.4313V10.2201L25.1131 3.54264L28.6409 7.07045L21.9635 13.7522H31.4082V18.7453H21.9635H20.524L15.9348 14.1433L11.3456 18.7453H9.91046H0.461426V13.7522H9.91046Z" fill="white"></path>
  <path d="M21.3617 20.6445L27.515 26.7978C26.8876 27.5068 22.8828 32.5514 15.7928 32.4913C8.87041 32.4311 5.02892 27.4939 4.38867 26.7677L10.5076 20.6488H21.3617V20.6445Z" fill="white"></path>
  <path d="M106.725 39.7877C106.205 39.2721 105.943 38.649 105.943 37.9056C105.943 37.1622 106.205 36.5392 106.725 36.0235C107.245 35.5079 107.886 35.2544 108.646 35.2544C109.407 35.2544 110.051 35.5079 110.55 36.0193C111.048 36.5306 111.297 37.158 111.297 37.9056V38.2021H107.37C107.422 38.5287 107.568 38.808 107.813 39.0357C108.057 39.2635 108.332 39.3795 108.646 39.3795C108.994 39.3795 109.291 39.2807 109.54 39.083C109.639 38.9971 109.716 38.8982 109.776 38.7865H111.25C111.138 39.1217 110.975 39.4139 110.76 39.6717C110.236 40.2604 109.531 40.5569 108.65 40.5569C107.89 40.5569 107.25 40.299 106.73 39.7877H106.725ZM107.417 37.3685H109.824C109.772 37.1064 109.639 36.8872 109.428 36.7068C109.213 36.5263 108.956 36.4361 108.646 36.4361C108.337 36.4361 108.075 36.5263 107.86 36.7025C107.645 36.8786 107.495 37.1021 107.417 37.3685Z" fill="white"></path>
  <path d="M112.29 40.4108V35.4048H113.665V37.2697H115.775V35.4048H117.15V40.4108H115.775V38.447H113.665V40.4108H112.29Z" fill="white"></path>
  <path d="M118.894 39.7877C118.374 39.2721 118.112 38.649 118.112 37.9056C118.112 37.1622 118.374 36.5392 118.894 36.0235C119.414 35.5079 120.055 35.2544 120.815 35.2544C121.576 35.2544 122.22 35.5079 122.719 36.0193C123.217 36.5306 123.466 37.158 123.466 37.9056V38.2021H119.539C119.59 38.5287 119.737 38.808 119.981 39.0357C120.226 39.2635 120.501 39.3795 120.815 39.3795C121.163 39.3795 121.46 39.2807 121.709 39.083C121.808 38.9971 121.885 38.8982 121.945 38.7865H123.419C123.307 39.1217 123.144 39.4139 122.929 39.6717C122.405 40.2604 121.7 40.5569 120.819 40.5569C120.059 40.5569 119.419 40.299 118.899 39.7877H118.894ZM119.586 37.3685H121.992C121.941 37.1064 121.808 36.8872 121.597 36.7068C121.382 36.5263 121.124 36.4361 120.815 36.4361C120.506 36.4361 120.244 36.5263 120.029 36.7025C119.814 36.8786 119.664 37.1021 119.586 37.3685Z" fill="white"></path>
  <path d="M124.442 42.2757V35.4049H125.817V36.0408H125.864C125.967 35.9033 126.096 35.7744 126.247 35.6498C126.599 35.3877 126.994 35.2588 127.433 35.2588C128.086 35.2588 128.636 35.5037 129.078 35.9893C129.521 36.4748 129.74 37.1151 129.74 37.91C129.74 38.705 129.521 39.3409 129.078 39.8308C128.636 40.3206 128.09 40.5612 127.433 40.5612C126.994 40.5612 126.599 40.4323 126.247 40.1702C126.096 40.0456 125.967 39.9167 125.864 39.7792H125.817V42.2843H124.442V42.2757ZM126.169 36.8229C125.933 37.0807 125.817 37.4417 125.817 37.9057C125.817 38.3698 125.933 38.7307 126.169 38.9929C126.406 39.2507 126.711 39.3796 127.093 39.3796C127.454 39.3796 127.746 39.2507 127.978 38.9886C128.21 38.7264 128.322 38.3655 128.322 37.91C128.322 37.4545 128.206 37.0936 127.978 36.8315C127.751 36.5694 127.454 36.4405 127.093 36.4405C126.715 36.4405 126.406 36.5694 126.169 36.8272V36.8229Z" fill="white"></path>
  <path d="M130.746 40.4108V35.4048H134.527V36.5822H132.121V40.4108H130.746Z" fill="white"></path>
  <path d="M135.39 34.5453C135.236 34.3992 135.158 34.2274 135.158 34.0297C135.158 33.832 135.236 33.6602 135.39 33.5141C135.545 33.368 135.73 33.2949 135.945 33.2949C136.159 33.2949 136.344 33.368 136.499 33.5141C136.654 33.6602 136.731 33.832 136.731 34.0297C136.731 34.2274 136.654 34.3992 136.499 34.5453C136.344 34.6914 136.159 34.7645 135.945 34.7645C135.73 34.7645 135.545 34.6914 135.39 34.5453ZM135.257 40.4107V35.4047H136.632V40.4107H135.257Z" fill="white"></path>
  <path d="M137.578 40.4107L138.609 38.593C138.446 38.5157 138.3 38.4083 138.166 38.2794C137.87 37.9872 137.724 37.6004 137.724 37.1192C137.724 36.6164 137.904 36.2039 138.261 35.8816C138.618 35.5594 139.112 35.4004 139.739 35.4004H142.244V40.4064H140.869V38.8852H139.889L139.103 40.4064H137.582L137.578 40.4107ZM139.15 37.1235C139.15 37.3254 139.21 37.4844 139.335 37.5961C139.46 37.7079 139.64 37.7637 139.877 37.7637H140.869V36.5864H139.877C139.649 36.5864 139.468 36.6379 139.339 36.7367C139.21 36.8399 139.146 36.9688 139.146 37.1235H139.15Z" fill="white"></path>
  <path d="M146.266 40.4108V35.4048H149.016C149.532 35.4048 149.931 35.5208 150.215 35.7485C150.494 35.9763 150.636 36.2728 150.636 36.6337C150.636 37.0119 150.494 37.3126 150.215 37.5275C150.086 37.6263 149.949 37.6865 149.803 37.7123V37.7595C149.992 37.7982 150.172 37.867 150.344 37.9658C150.705 38.2193 150.885 38.5631 150.885 38.9885C150.885 39.4139 150.722 39.749 150.396 40.0154C150.069 40.2818 149.609 40.4108 149.02 40.4108H146.27H146.266ZM147.641 37.3169H148.819C148.969 37.3169 149.089 37.274 149.175 37.188C149.265 37.1021 149.308 36.999 149.308 36.8744C149.308 36.7497 149.265 36.6466 149.175 36.5607C149.085 36.4747 148.969 36.4318 148.819 36.4318H147.641V37.3169ZM147.641 39.3795H148.917C149.089 39.3795 149.227 39.3279 149.338 39.2205C149.45 39.1174 149.506 38.9885 149.506 38.8381C149.506 38.6877 149.45 38.5588 149.338 38.4556C149.227 38.3525 149.085 38.2966 148.917 38.2966H147.641V39.3752V39.3795Z" fill="white"></path>
  <path d="M154.168 36.5822V35.4048H158.882V36.5822H157.215V40.4108H155.84V36.5822H154.173H154.168Z" fill="white"></path>
  <path d="M160.076 39.7877C159.552 39.2721 159.29 38.649 159.29 37.9056C159.29 37.1622 159.552 36.5392 160.076 36.0235C160.601 35.5079 161.254 35.2544 162.04 35.2544C162.826 35.2544 163.471 35.5122 164 36.0235C164.528 36.5392 164.79 37.1622 164.79 37.9056C164.79 38.649 164.528 39.2721 164 39.7877C163.471 40.3033 162.818 40.5569 162.04 40.5569C161.262 40.5569 160.601 40.299 160.076 39.7877ZM161.099 36.8486C160.846 37.1236 160.717 37.4759 160.717 37.9099C160.717 38.3439 160.846 38.6963 161.099 38.9713C161.353 39.2463 161.671 39.3838 162.04 39.3838C162.41 39.3838 162.728 39.2463 162.981 38.9713C163.235 38.6963 163.364 38.3439 163.364 37.9099C163.364 37.4759 163.235 37.1236 162.981 36.8486C162.728 36.5736 162.41 36.4361 162.04 36.4361C161.671 36.4361 161.353 36.5736 161.099 36.8486Z" fill="white"></path>
  <path d="M165.521 37.5663C165.521 34.8807 166.634 33.54 168.86 33.54H170.282V34.7174H169.006C168.331 34.7174 167.82 34.8721 167.463 35.1815C167.111 35.4909 166.922 35.9249 166.892 36.4835H166.939C167.016 36.3717 167.137 36.2557 167.291 36.1397C167.626 35.912 168.013 35.7959 168.46 35.7959C169.109 35.7959 169.646 36.0151 170.076 36.4491C170.505 36.8831 170.72 37.4374 170.72 38.1034C170.72 38.8038 170.48 39.3882 169.998 39.8566C169.517 40.325 168.89 40.557 168.116 40.557C167.343 40.557 166.741 40.2863 166.251 39.7406C165.762 39.1991 165.517 38.473 165.517 37.562L165.521 37.5663ZM166.943 38.1077C166.943 38.4944 167.051 38.8038 167.265 39.0359C167.48 39.2679 167.768 39.3839 168.121 39.3839C168.473 39.3839 168.757 39.2679 168.976 39.0359C169.191 38.8038 169.298 38.4944 169.298 38.1077C169.298 37.721 169.191 37.4374 168.976 37.2139C168.761 36.9905 168.473 36.8788 168.121 36.8788C167.768 36.8788 167.48 36.9905 167.265 37.2139C167.051 37.4374 166.943 37.7339 166.943 38.1077Z" fill="white"></path>
  <path d="M171.752 34.5453C171.597 34.3992 171.52 34.2274 171.52 34.0297C171.52 33.832 171.597 33.6602 171.752 33.5141C171.906 33.368 172.091 33.2949 172.306 33.2949C172.521 33.2949 172.705 33.368 172.86 33.5141C173.015 33.6602 173.092 33.832 173.092 34.0297C173.092 34.2274 173.015 34.3992 172.86 34.5453C172.705 34.6914 172.521 34.7645 172.306 34.7645C172.091 34.7645 171.906 34.6914 171.752 34.5453ZM171.618 40.4107V35.4047H172.993V40.4107H171.618Z" fill="white"></path>
</svg>
